<svg xmlns="http://www.w3.org/2000/svg" version="1.1" xmlns:xlink="http://www.w3.org/1999/xlink" xmlns:svgjs="http://svgjs.dev/svgjs" width="1440" height="560" preserveAspectRatio="none" viewBox="0 0 1440 560"><g mask="url(&quot;#SvgjsMask1067&quot;)" fill="none"><rect width="1440" height="560" x="0" y="0" fill="rgba(29, 35, 42, 1)"></rect><rect width="264" height="264" clip-path="url(&quot;#SvgjsClipPath1068&quot;)" x="764.03" y="-51.65" fill="url(&quot;#SvgjsPattern1069&quot;)" transform="rotate(189.88, 896.03, 80.35)"></rect><rect width="213.84" height="213.84" clip-path="url(&quot;#SvgjsClipPath1070&quot;)" x="211.63" y="301.88" fill="url(&quot;#SvgjsPattern1071&quot;)" transform="rotate(222.16, 318.55, 408.8)"></rect><path d="M1381.17 205.21L1380.58 192.42 1392.93 189.03 1392.34 176.23 1404.69 172.85 1404.09 160.05 1416.44 156.67M1387.65 209.91L1387.05 197.12 1399.4 193.73 1398.81 180.94 1411.16 177.55 1410.56 164.76 1422.91 161.37" stroke="rgba(20, 164, 211, 1)" stroke-width="1" stroke-dasharray="3, 2"></path><path d="M1127.77 261.54a5.6 5.6 0 1 0 10.97 2.23 5.6 5.6 0 1 0-10.97-2.23zM1143.45 264.73a5.6 5.6 0 1 0 10.97 2.23 5.6 5.6 0 1 0-10.97-2.23zM1159.13 267.91a5.6 5.6 0 1 0 10.97 2.23 5.6 5.6 0 1 0-10.97-2.23zM1174.81 271.09a5.6 5.6 0 1 0 10.97 2.23 5.6 5.6 0 1 0-10.97-2.23zM1093.22 270.85a5.6 5.6 0 1 0 10.98 2.23 5.6 5.6 0 1 0-10.98-2.23zM1108.9 274.04a5.6 5.6 0 1 0 10.98 2.23 5.6 5.6 0 1 0-10.98-2.23zM1124.58 277.22a5.6 5.6 0 1 0 10.98 2.23 5.6 5.6 0 1 0-10.98-2.23zM1140.26 280.41a5.6 5.6 0 1 0 10.98 2.22 5.6 5.6 0 1 0-10.98-2.22z" stroke="rgba(20, 164, 211, 1)" stroke-width="2.32" stroke-dasharray="2, 2"></path><rect width="179.2" height="179.2" clip-path="url(&quot;#SvgjsClipPath1072&quot;)" x="-5.13" y="-4.42" fill="url(&quot;#SvgjsPattern1073&quot;)" transform="rotate(79.48, 84.47, 85.18)"></rect><rect width="189.12" height="189.12" clip-path="url(&quot;#SvgjsClipPath1074&quot;)" x="170.46" y="128.7" fill="url(&quot;#SvgjsPattern1075&quot;)" transform="rotate(305.82, 265.02, 223.26)"></rect><path d="M289.29 546.1 L262.65000000000003 540.8199999999999L286.1660193194529 533.2639806805472z" fill="rgba(102, 53, 231, 1)"></path><path d="M985.13 234.03a5.6 5.6 0 1 0 8.34 7.48 5.6 5.6 0 1 0-8.34-7.48zM997.04 244.71a5.6 5.6 0 1 0 8.34 7.48 5.6 5.6 0 1 0-8.34-7.48zM1008.95 255.4a5.6 5.6 0 1 0 8.34 7.48 5.6 5.6 0 1 0-8.34-7.48zM1020.86 266.08a5.6 5.6 0 1 0 8.34 7.48 5.6 5.6 0 1 0-8.34-7.48zM950.63 224.57a5.6 5.6 0 1 0 8.34 7.48 5.6 5.6 0 1 0-8.34-7.48zM962.54 235.25a5.6 5.6 0 1 0 8.34 7.48 5.6 5.6 0 1 0-8.34-7.48zM974.45 245.94a5.6 5.6 0 1 0 8.33 7.48 5.6 5.6 0 1 0-8.33-7.48zM986.36 256.62a5.6 5.6 0 1 0 8.33 7.48 5.6 5.6 0 1 0-8.33-7.48zM916.13 215.1a5.6 5.6 0 1 0 8.33 7.48 5.6 5.6 0 1 0-8.33-7.48zM928.04 225.79a5.6 5.6 0 1 0 8.33 7.48 5.6 5.6 0 1 0-8.33-7.48zM939.94 236.48a5.6 5.6 0 1 0 8.34 7.47 5.6 5.6 0 1 0-8.34-7.47zM951.85 247.16a5.6 5.6 0 1 0 8.34 7.48 5.6 5.6 0 1 0-8.34-7.48z" fill="rgba(20, 164, 211, 1)"></path><path d="M1269.44 223.42L1256.79 225.43 1252.05 213.54 1239.4 215.56 1234.66 203.66 1222.01 205.68 1217.26 193.79" stroke="rgba(20, 164, 211, 1)" stroke-width="2.7" stroke-dasharray="4, 4"></path><path d="M987.37 316.76 L1140.12 329.45000000000005L981.1418805424548 405.708119457545z" stroke="rgba(20, 164, 211, 1)" stroke-width="1.79" stroke-dasharray="3, 2"></path><path d="M693.8299999999999 297.99 L767.76 367.5L660.2987655463444 403.2412344536556z" stroke="rgba(20, 164, 211, 1)" stroke-width="2.11" stroke-dasharray="4, 4"></path><circle r="46.666666666666664" cx="920.79" cy="400.09" stroke="rgba(3, 24, 123, 1)" stroke-width="1.04" stroke-dasharray="4, 4"></circle></g><defs><mask id="SvgjsMask1067"><rect width="1440" height="560" fill="#ffffff"></rect></mask><pattern x="0" y="0" width="6" height="6" patternUnits="userSpaceOnUse" id="SvgjsPattern1069"><path d="M3 1L3 5M1 3L5 3" stroke="rgba(102, 53, 231, 1)" fill="none" stroke-width="1"></path></pattern><clipPath id="SvgjsClipPath1068"><circle r="66" cx="896.03" cy="80.35"></circle></clipPath><pattern x="0" y="0" width="213.84" height="11.88" patternUnits="userSpaceOnUse" id="SvgjsPattern1071"><rect width="213.84" height="5.94" x="0" y="0" fill="rgba(20, 164, 211, 1)"></rect><rect width="213.84" height="5.94" x="0" y="5.94" fill="rgba(0, 0, 0, 0)"></rect></pattern><clipPath id="SvgjsClipPath1070"><circle r="53.46" cx="318.55" cy="408.8"></circle></clipPath><pattern x="0" y="0" width="179.2" height="12.8" patternUnits="userSpaceOnUse" id="SvgjsPattern1073"><rect width="179.2" height="6.4" x="0" y="0" fill="rgba(20, 164, 211, 1)"></rect><rect width="179.2" height="6.4" x="0" y="6.4" fill="rgba(0, 0, 0, 0)"></rect></pattern><clipPath id="SvgjsClipPath1072"><circle r="44.8" cx="84.47" cy="85.18"></circle></clipPath><pattern x="0" y="0" width="11.82" height="11.82" patternUnits="userSpaceOnUse" id="SvgjsPattern1075"><path d="M5.91 1L5.91 10.82M1 5.91L10.82 5.91" stroke="rgba(3, 24, 123, 1)" fill="none" stroke-width="4"></path></pattern><clipPath id="SvgjsClipPath1074"><circle r="47.28" cx="265.02" cy="223.26"></circle></clipPath></defs></svg>