<svg xmlns="http://www.w3.org/2000/svg" version="1.1" xmlns:xlink="http://www.w3.org/1999/xlink" xmlns:svgjs="http://svgjs.dev/svgjs" width="1440" height="560" preserveAspectRatio="none" viewBox="0 0 1440 560"><g mask="url(&quot;#SvgjsMask1057&quot;)" fill="none"><rect width="1440" height="560" x="0" y="0" fill="#0e2a47"></rect><path d="M11.58 -32.44L76.53 5.06L76.53 80.06L11.58 117.56L-53.37 80.06L-53.37 5.06zM76.53 80.06L141.49 117.56L141.49 192.56L76.53 230.06L11.58 192.56L11.58 117.56zM76.53 305.06L141.49 342.56L141.49 417.56L76.53 455.06L11.58 417.56L11.58 342.56zM11.58 417.56L76.53 455.06L76.53 530.06L11.58 567.56L-53.37 530.06L-53.37 455.06zM206.44 80.06L271.39 117.56L271.39 192.56L206.44 230.06L141.49 192.56L141.49 117.56zM141.49 192.56L206.44 230.06L206.44 305.06L141.49 342.56L76.53 305.06L76.53 230.06zM206.44 530.06L271.39 567.56L271.39 642.56L206.44 680.06L141.49 642.56L141.49 567.56zM271.39 -32.44L336.35 5.06L336.35 80.06L271.39 117.56L206.44 80.06L206.44 5.06zM336.35 80.06L401.3 117.56L401.3 192.56L336.35 230.06L271.39 192.56L271.39 117.56zM271.39 192.56L336.35 230.06L336.35 305.06L271.39 342.56L206.44 305.06L206.44 230.06zM336.35 305.06L401.3 342.56L401.3 417.56L336.35 455.06L271.39 417.56L271.39 342.56zM596.16 80.06L661.12 117.56L661.12 192.56L596.16 230.06L531.21 192.56L531.21 117.56zM531.21 417.56L596.16 455.06L596.16 530.06L531.21 567.56L466.26 530.06L466.26 455.06zM661.12 192.56L726.07 230.06L726.07 305.06L661.12 342.56L596.16 305.06L596.16 230.06zM726.07 530.06L791.03 567.56L791.03 642.56L726.07 680.06L661.12 642.56L661.12 567.56zM791.02 -32.44L855.98 5.06L855.98 80.06L791.02 117.56L726.07 80.06L726.07 5.06zM855.98 80.06L920.93 117.56L920.93 192.56L855.98 230.06L791.02 192.56L791.02 117.56zM791.02 417.56L855.98 455.06L855.98 530.06L791.02 567.56L726.07 530.06L726.07 455.06zM985.89 80.06L1050.84 117.56L1050.84 192.56L985.89 230.06L920.93 192.56L920.93 117.56zM985.89 530.06L1050.84 567.56L1050.84 642.56L985.89 680.06L920.93 642.56L920.93 567.56zM1115.79 305.06L1180.75 342.56L1180.75 417.56L1115.79 455.06L1050.84 417.56L1050.84 342.56zM1115.79 530.06L1180.75 567.56L1180.75 642.56L1115.79 680.06L1050.84 642.56L1050.84 567.56zM1180.75 -32.44L1245.7 5.06L1245.7 80.06L1180.75 117.56L1115.79 80.06L1115.79 5.06zM1245.7 80.06L1310.65 117.56L1310.65 192.56L1245.7 230.06L1180.75 192.56L1180.75 117.56zM1375.61 80.06L1440.56 117.56L1440.56 192.56L1375.61 230.06L1310.65 192.56L1310.65 117.56zM1375.61 305.06L1440.56 342.56L1440.56 417.56L1375.61 455.06L1310.65 417.56L1310.65 342.56zM1310.65 417.56L1375.61 455.06L1375.61 530.06L1310.65 567.56L1245.7 530.06L1245.7 455.06zM1375.61 530.06L1440.56 567.56L1440.56 642.56L1375.61 680.06L1310.65 642.56L1310.65 567.56zM1440.56 -32.44L1505.52 5.06L1505.52 80.06L1440.56 117.56L1375.61 80.06L1375.61 5.06zM1505.52 80.06L1570.47 117.56L1570.47 192.56L1505.52 230.06L1440.56 192.56L1440.56 117.56zM1440.56 192.56L1505.52 230.06L1505.52 305.06L1440.56 342.56L1375.61 305.06L1375.61 230.06z" stroke="#03305d" stroke-width="2"></path><path d="M4.08 -32.44 a7.5 7.5 0 1 0 15 0 a7.5 7.5 0 1 0 -15 0zM69.03 5.06 a7.5 7.5 0 1 0 15 0 a7.5 7.5 0 1 0 -15 0zM69.03 80.06 a7.5 7.5 0 1 0 15 0 a7.5 7.5 0 1 0 -15 0zM4.08 117.56 a7.5 7.5 0 1 0 15 0 a7.5 7.5 0 1 0 -15 0zM-60.87 80.06 a7.5 7.5 0 1 0 15 0 a7.5 7.5 0 1 0 -15 0zM-60.87 5.06 a7.5 7.5 0 1 0 15 0 a7.5 7.5 0 1 0 -15 0zM133.99 117.56 a7.5 7.5 0 1 0 15 0 a7.5 7.5 0 1 0 -15 0zM133.99 192.56 a7.5 7.5 0 1 0 15 0 a7.5 7.5 0 1 0 -15 0zM69.03 230.06 a7.5 7.5 0 1 0 15 0 a7.5 7.5 0 1 0 -15 0zM4.08 192.56 a7.5 7.5 0 1 0 15 0 a7.5 7.5 0 1 0 -15 0zM69.03 305.06 a7.5 7.5 0 1 0 15 0 a7.5 7.5 0 1 0 -15 0zM133.99 342.56 a7.5 7.5 0 1 0 15 0 a7.5 7.5 0 1 0 -15 0zM133.99 417.56 a7.5 7.5 0 1 0 15 0 a7.5 7.5 0 1 0 -15 0zM69.03 455.06 a7.5 7.5 0 1 0 15 0 a7.5 7.5 0 1 0 -15 0zM4.08 417.56 a7.5 7.5 0 1 0 15 0 a7.5 7.5 0 1 0 -15 0zM4.08 342.56 a7.5 7.5 0 1 0 15 0 a7.5 7.5 0 1 0 -15 0zM69.03 530.06 a7.5 7.5 0 1 0 15 0 a7.5 7.5 0 1 0 -15 0zM4.08 567.56 a7.5 7.5 0 1 0 15 0 a7.5 7.5 0 1 0 -15 0zM-60.87 530.06 a7.5 7.5 0 1 0 15 0 a7.5 7.5 0 1 0 -15 0zM-60.87 455.06 a7.5 7.5 0 1 0 15 0 a7.5 7.5 0 1 0 -15 0zM198.94 80.06 a7.5 7.5 0 1 0 15 0 a7.5 7.5 0 1 0 -15 0zM263.89 117.56 a7.5 7.5 0 1 0 15 0 a7.5 7.5 0 1 0 -15 0zM263.89 192.56 a7.5 7.5 0 1 0 15 0 a7.5 7.5 0 1 0 -15 0zM198.94 230.06 a7.5 7.5 0 1 0 15 0 a7.5 7.5 0 1 0 -15 0zM198.94 305.06 a7.5 7.5 0 1 0 15 0 a7.5 7.5 0 1 0 -15 0zM198.94 530.06 a7.5 7.5 0 1 0 15 0 a7.5 7.5 0 1 0 -15 0zM263.89 567.56 a7.5 7.5 0 1 0 15 0 a7.5 7.5 0 1 0 -15 0zM263.89 642.56 a7.5 7.5 0 1 0 15 0 a7.5 7.5 0 1 0 -15 0zM198.94 680.06 a7.5 7.5 0 1 0 15 0 a7.5 7.5 0 1 0 -15 0zM133.99 642.56 a7.5 7.5 0 1 0 15 0 a7.5 7.5 0 1 0 -15 0zM133.99 567.56 a7.5 7.5 0 1 0 15 0 a7.5 7.5 0 1 0 -15 0zM263.89 -32.44 a7.5 7.5 0 1 0 15 0 a7.5 7.5 0 1 0 -15 0zM328.85 5.06 a7.5 7.5 0 1 0 15 0 a7.5 7.5 0 1 0 -15 0zM328.85 80.06 a7.5 7.5 0 1 0 15 0 a7.5 7.5 0 1 0 -15 0zM198.94 5.06 a7.5 7.5 0 1 0 15 0 a7.5 7.5 0 1 0 -15 0zM393.8 117.56 a7.5 7.5 0 1 0 15 0 a7.5 7.5 0 1 0 -15 0zM393.8 192.56 a7.5 7.5 0 1 0 15 0 a7.5 7.5 0 1 0 -15 0zM328.85 230.06 a7.5 7.5 0 1 0 15 0 a7.5 7.5 0 1 0 -15 0zM328.85 305.06 a7.5 7.5 0 1 0 15 0 a7.5 7.5 0 1 0 -15 0zM263.89 342.56 a7.5 7.5 0 1 0 15 0 a7.5 7.5 0 1 0 -15 0zM393.8 342.56 a7.5 7.5 0 1 0 15 0 a7.5 7.5 0 1 0 -15 0zM393.8 417.56 a7.5 7.5 0 1 0 15 0 a7.5 7.5 0 1 0 -15 0zM328.85 455.06 a7.5 7.5 0 1 0 15 0 a7.5 7.5 0 1 0 -15 0zM263.89 417.56 a7.5 7.5 0 1 0 15 0 a7.5 7.5 0 1 0 -15 0zM588.66 80.06 a7.5 7.5 0 1 0 15 0 a7.5 7.5 0 1 0 -15 0zM653.62 117.56 a7.5 7.5 0 1 0 15 0 a7.5 7.5 0 1 0 -15 0zM653.62 192.56 a7.5 7.5 0 1 0 15 0 a7.5 7.5 0 1 0 -15 0zM588.66 230.06 a7.5 7.5 0 1 0 15 0 a7.5 7.5 0 1 0 -15 0zM523.71 192.56 a7.5 7.5 0 1 0 15 0 a7.5 7.5 0 1 0 -15 0zM523.71 117.56 a7.5 7.5 0 1 0 15 0 a7.5 7.5 0 1 0 -15 0zM523.71 417.56 a7.5 7.5 0 1 0 15 0 a7.5 7.5 0 1 0 -15 0zM588.66 455.06 a7.5 7.5 0 1 0 15 0 a7.5 7.5 0 1 0 -15 0zM588.66 530.06 a7.5 7.5 0 1 0 15 0 a7.5 7.5 0 1 0 -15 0zM523.71 567.56 a7.5 7.5 0 1 0 15 0 a7.5 7.5 0 1 0 -15 0zM458.76 530.06 a7.5 7.5 0 1 0 15 0 a7.5 7.5 0 1 0 -15 0zM458.76 455.06 a7.5 7.5 0 1 0 15 0 a7.5 7.5 0 1 0 -15 0zM718.57 230.06 a7.5 7.5 0 1 0 15 0 a7.5 7.5 0 1 0 -15 0zM718.57 305.06 a7.5 7.5 0 1 0 15 0 a7.5 7.5 0 1 0 -15 0zM653.62 342.56 a7.5 7.5 0 1 0 15 0 a7.5 7.5 0 1 0 -15 0zM588.66 305.06 a7.5 7.5 0 1 0 15 0 a7.5 7.5 0 1 0 -15 0zM718.57 530.06 a7.5 7.5 0 1 0 15 0 a7.5 7.5 0 1 0 -15 0zM783.53 567.56 a7.5 7.5 0 1 0 15 0 a7.5 7.5 0 1 0 -15 0zM783.53 642.56 a7.5 7.5 0 1 0 15 0 a7.5 7.5 0 1 0 -15 0zM718.57 680.06 a7.5 7.5 0 1 0 15 0 a7.5 7.5 0 1 0 -15 0zM653.62 642.56 a7.5 7.5 0 1 0 15 0 a7.5 7.5 0 1 0 -15 0zM653.62 567.56 a7.5 7.5 0 1 0 15 0 a7.5 7.5 0 1 0 -15 0zM783.52 -32.44 a7.5 7.5 0 1 0 15 0 a7.5 7.5 0 1 0 -15 0zM848.48 5.06 a7.5 7.5 0 1 0 15 0 a7.5 7.5 0 1 0 -15 0zM848.48 80.06 a7.5 7.5 0 1 0 15 0 a7.5 7.5 0 1 0 -15 0zM783.52 117.56 a7.5 7.5 0 1 0 15 0 a7.5 7.5 0 1 0 -15 0zM718.57 80.06 a7.5 7.5 0 1 0 15 0 a7.5 7.5 0 1 0 -15 0zM718.57 5.06 a7.5 7.5 0 1 0 15 0 a7.5 7.5 0 1 0 -15 0zM913.43 117.56 a7.5 7.5 0 1 0 15 0 a7.5 7.5 0 1 0 -15 0zM913.43 192.56 a7.5 7.5 0 1 0 15 0 a7.5 7.5 0 1 0 -15 0zM848.48 230.06 a7.5 7.5 0 1 0 15 0 a7.5 7.5 0 1 0 -15 0zM783.52 192.56 a7.5 7.5 0 1 0 15 0 a7.5 7.5 0 1 0 -15 0zM783.52 417.56 a7.5 7.5 0 1 0 15 0 a7.5 7.5 0 1 0 -15 0zM848.48 455.06 a7.5 7.5 0 1 0 15 0 a7.5 7.5 0 1 0 -15 0zM848.48 530.06 a7.5 7.5 0 1 0 15 0 a7.5 7.5 0 1 0 -15 0zM783.52 567.56 a7.5 7.5 0 1 0 15 0 a7.5 7.5 0 1 0 -15 0zM718.57 455.06 a7.5 7.5 0 1 0 15 0 a7.5 7.5 0 1 0 -15 0zM978.39 80.06 a7.5 7.5 0 1 0 15 0 a7.5 7.5 0 1 0 -15 0zM1043.34 117.56 a7.5 7.5 0 1 0 15 0 a7.5 7.5 0 1 0 -15 0zM1043.34 192.56 a7.5 7.5 0 1 0 15 0 a7.5 7.5 0 1 0 -15 0zM978.39 230.06 a7.5 7.5 0 1 0 15 0 a7.5 7.5 0 1 0 -15 0zM978.39 530.06 a7.5 7.5 0 1 0 15 0 a7.5 7.5 0 1 0 -15 0zM1043.34 567.56 a7.5 7.5 0 1 0 15 0 a7.5 7.5 0 1 0 -15 0zM1043.34 642.56 a7.5 7.5 0 1 0 15 0 a7.5 7.5 0 1 0 -15 0zM978.39 680.06 a7.5 7.5 0 1 0 15 0 a7.5 7.5 0 1 0 -15 0zM913.43 642.56 a7.5 7.5 0 1 0 15 0 a7.5 7.5 0 1 0 -15 0zM913.43 567.56 a7.5 7.5 0 1 0 15 0 a7.5 7.5 0 1 0 -15 0zM1108.29 305.06 a7.5 7.5 0 1 0 15 0 a7.5 7.5 0 1 0 -15 0zM1173.25 342.56 a7.5 7.5 0 1 0 15 0 a7.5 7.5 0 1 0 -15 0zM1173.25 417.56 a7.5 7.5 0 1 0 15 0 a7.5 7.5 0 1 0 -15 0zM1108.29 455.06 a7.5 7.5 0 1 0 15 0 a7.5 7.5 0 1 0 -15 0zM1043.34 417.56 a7.5 7.5 0 1 0 15 0 a7.5 7.5 0 1 0 -15 0zM1043.34 342.56 a7.5 7.5 0 1 0 15 0 a7.5 7.5 0 1 0 -15 0zM1108.29 530.06 a7.5 7.5 0 1 0 15 0 a7.5 7.5 0 1 0 -15 0zM1173.25 567.56 a7.5 7.5 0 1 0 15 0 a7.5 7.5 0 1 0 -15 0zM1173.25 642.56 a7.5 7.5 0 1 0 15 0 a7.5 7.5 0 1 0 -15 0zM1108.29 680.06 a7.5 7.5 0 1 0 15 0 a7.5 7.5 0 1 0 -15 0zM1173.25 -32.44 a7.5 7.5 0 1 0 15 0 a7.5 7.5 0 1 0 -15 0zM1238.2 5.06 a7.5 7.5 0 1 0 15 0 a7.5 7.5 0 1 0 -15 0zM1238.2 80.06 a7.5 7.5 0 1 0 15 0 a7.5 7.5 0 1 0 -15 0zM1173.25 117.56 a7.5 7.5 0 1 0 15 0 a7.5 7.5 0 1 0 -15 0zM1108.29 80.06 a7.5 7.5 0 1 0 15 0 a7.5 7.5 0 1 0 -15 0zM1108.29 5.06 a7.5 7.5 0 1 0 15 0 a7.5 7.5 0 1 0 -15 0zM1303.15 117.56 a7.5 7.5 0 1 0 15 0 a7.5 7.5 0 1 0 -15 0zM1303.15 192.56 a7.5 7.5 0 1 0 15 0 a7.5 7.5 0 1 0 -15 0zM1238.2 230.06 a7.5 7.5 0 1 0 15 0 a7.5 7.5 0 1 0 -15 0zM1173.25 192.56 a7.5 7.5 0 1 0 15 0 a7.5 7.5 0 1 0 -15 0zM1368.11 80.06 a7.5 7.5 0 1 0 15 0 a7.5 7.5 0 1 0 -15 0zM1433.06 117.56 a7.5 7.5 0 1 0 15 0 a7.5 7.5 0 1 0 -15 0zM1433.06 192.56 a7.5 7.5 0 1 0 15 0 a7.5 7.5 0 1 0 -15 0zM1368.11 230.06 a7.5 7.5 0 1 0 15 0 a7.5 7.5 0 1 0 -15 0zM1368.11 305.06 a7.5 7.5 0 1 0 15 0 a7.5 7.5 0 1 0 -15 0zM1433.06 342.56 a7.5 7.5 0 1 0 15 0 a7.5 7.5 0 1 0 -15 0zM1433.06 417.56 a7.5 7.5 0 1 0 15 0 a7.5 7.5 0 1 0 -15 0zM1368.11 455.06 a7.5 7.5 0 1 0 15 0 a7.5 7.5 0 1 0 -15 0zM1303.15 417.56 a7.5 7.5 0 1 0 15 0 a7.5 7.5 0 1 0 -15 0zM1303.15 342.56 a7.5 7.5 0 1 0 15 0 a7.5 7.5 0 1 0 -15 0zM1368.11 530.06 a7.5 7.5 0 1 0 15 0 a7.5 7.5 0 1 0 -15 0zM1303.15 567.56 a7.5 7.5 0 1 0 15 0 a7.5 7.5 0 1 0 -15 0zM1238.2 530.06 a7.5 7.5 0 1 0 15 0 a7.5 7.5 0 1 0 -15 0zM1238.2 455.06 a7.5 7.5 0 1 0 15 0 a7.5 7.5 0 1 0 -15 0zM1433.06 567.56 a7.5 7.5 0 1 0 15 0 a7.5 7.5 0 1 0 -15 0zM1433.06 642.56 a7.5 7.5 0 1 0 15 0 a7.5 7.5 0 1 0 -15 0zM1368.11 680.06 a7.5 7.5 0 1 0 15 0 a7.5 7.5 0 1 0 -15 0zM1303.15 642.56 a7.5 7.5 0 1 0 15 0 a7.5 7.5 0 1 0 -15 0zM1433.06 -32.44 a7.5 7.5 0 1 0 15 0 a7.5 7.5 0 1 0 -15 0zM1498.02 5.06 a7.5 7.5 0 1 0 15 0 a7.5 7.5 0 1 0 -15 0zM1498.02 80.06 a7.5 7.5 0 1 0 15 0 a7.5 7.5 0 1 0 -15 0zM1368.11 5.06 a7.5 7.5 0 1 0 15 0 a7.5 7.5 0 1 0 -15 0zM1562.97 117.56 a7.5 7.5 0 1 0 15 0 a7.5 7.5 0 1 0 -15 0zM1562.97 192.56 a7.5 7.5 0 1 0 15 0 a7.5 7.5 0 1 0 -15 0zM1498.02 230.06 a7.5 7.5 0 1 0 15 0 a7.5 7.5 0 1 0 -15 0zM1498.02 305.06 a7.5 7.5 0 1 0 15 0 a7.5 7.5 0 1 0 -15 0z" fill="#03305d"></path><path d="M163.38 165.98L234.4 206.98L234.4 288.98L163.38 329.98L92.37 288.98L92.37 206.98zM376.43 534.98L447.45 575.98L447.45 657.98L376.43 698.98L305.41 657.98L305.41 575.98zM447.45 -80.02L518.46 -39.02L518.46 42.98L447.45 83.98L376.43 42.98L376.43 -39.02zM518.46 288.98L589.48 329.98L589.48 411.98L518.46 452.98L447.45 411.98L447.45 329.98zM802.53 42.98L873.54 83.98L873.54 165.98L802.53 206.98L731.51 165.98L731.51 83.98zM944.56 534.98L1015.58 575.98L1015.58 657.98L944.56 698.98L873.54 657.98L873.54 575.98zM1086.59 288.98L1157.61 329.98L1157.61 411.98L1086.59 452.98L1015.58 411.98L1015.58 329.98zM1157.61 411.98L1228.62 452.98L1228.62 534.98L1157.61 575.98L1086.59 534.98L1086.59 452.98zM1299.64 -80.02L1370.66 -39.02L1370.66 42.98L1299.64 83.98L1228.62 42.98L1228.62 -39.02zM1370.66 288.98L1441.67 329.98L1441.67 411.98L1370.66 452.98L1299.64 411.98L1299.64 329.98z" stroke="rgba(6, 80, 156, 0.93)" stroke-width="2"></path></g><defs><mask id="SvgjsMask1057"><rect width="1440" height="560" fill="#ffffff"></rect></mask></defs></svg>